<svg width="1407" height="82" viewBox="0 0 1407 82" fill="none" xmlns="http://www.w3.org/2000/svg">
<path d="M-33 11.2432C-33 11.2432 230 0 655 0C1080 0 1407 11.2432 1407 11.2432V672C1407 672 1348 672 909 672C470 672 -33 672 -33 672V11.2432Z" fill="#EFF5FB"/>
<path d="M-33 11.2432C-33 11.2432 230 0 655 0C1080 0 1407 11.2432 1407 11.2432V672C1407 672 1348 672 909 672C470 672 -33 672 -33 672V11.2432Z" fill="url(#paint0_linear_4492_1367)"/>
<defs>
<linearGradient id="paint0_linear_4492_1367" x1="687" y1="281.899" x2="687" y2="472.216" gradientUnits="userSpaceOnUse">
<stop stop-color="white" stop-opacity="0"/>
<stop offset="1" stop-color="white"/>
</linearGradient>
</defs>
</svg>
